<?xml version="1.0" encoding="UTF-8" standalone="no"?>
<!-- Created with Inkscape (http://www.inkscape.org/) -->

<svg
   xmlns:dc="http://purl.org/dc/elements/1.1/"
   xmlns:cc="http://creativecommons.org/ns#"
   xmlns:rdf="http://www.w3.org/1999/02/22-rdf-syntax-ns#"
   xmlns:svg="http://www.w3.org/2000/svg"
   xmlns="http://www.w3.org/2000/svg"
   xmlns:sodipodi="http://sodipodi.sourceforge.net/DTD/sodipodi-0.dtd"
   xmlns:inkscape="http://www.inkscape.org/namespaces/inkscape"
   width="147.42725mm"
   height="93.982979mm"
   viewBox="0 0 147.42725 93.982979"
   version="1.1"
   id="svg1020"
   inkscape:version="0.92.4 (5da689c313, 2019-01-14)"
   sodipodi:docname="logo.svg">
  <defs
     id="defs1014" />
  <sodipodi:namedview
     id="base"
     pagecolor="#ffffff"
     bordercolor="#666666"
     borderopacity="1.0"
     inkscape:pageopacity="0.0"
     inkscape:pageshadow="2"
     inkscape:zoom="1.4"
     inkscape:cx="232.92568"
     inkscape:cy="205.97786"
     inkscape:document-units="mm"
     inkscape:current-layer="g936"
     showgrid="false"
     fit-margin-top="0"
     fit-margin-left="0"
     fit-margin-right="0"
     fit-margin-bottom="0"
     inkscape:window-width="1386"
     inkscape:window-height="863"
     inkscape:window-x="54"
     inkscape:window-y="0"
     inkscape:window-maximized="1" />
  <metadata
     id="metadata1017">
    <rdf:RDF>
      <cc:Work
         rdf:about="">
        <dc:format>image/svg+xml</dc:format>
        <dc:type
           rdf:resource="http://purl.org/dc/dcmitype/StillImage" />
        <dc:title />
      </cc:Work>
    </rdf:RDF>
  </metadata>
  <g
     inkscape:label="Capa 1"
     inkscape:groupmode="layer"
     id="layer1"
     transform="translate(-38.167333,-113.93708)">
    <g
       id="g936"
       transform="translate(6.9671519,86.426719)">
      <path
         d="M 109.98006,51.769524 88.542077,27.512596 v 38.997529 c 0,12.218613 -5.684551,21.557826 -17.308205,21.557826 -11.753026,0 -18.078149,-9.339213 -18.078149,-21.557826 V 27.512596 H 31.200181 v 39.506595 c 0,21.484647 15.627228,33.194189 39.389952,33.194189 6.193607,0 16.816082,-2.377751 16.816082,-2.377751 L 109.78279,73.120543 c 0.11027,-6.453454 0.1972,-14.242144 0.1972,-21.351019 z"
         id="path31-5"
         inkscape:connector-curvature="0"
         style="isolation:isolate;fill:#ff00ff;stroke-width:0.63014811" />
      <path
         d="m 152.16561,98.983144 h 26.46181 l -31.85473,-36.751282 30.7263,-34.710781 h -25.20825 l -9.40497,11.843175 c -4.13933,5.206246 -7.90109,10.004181 -8.15245,10.004181 h -0.12504 c -0.12504,0 -4.13828,-4.696121 -8.77819,-10.004181 L 115.79622,27.521081 90.212527,27.510364 121.31427,62.23175 88.707626,98.983032 h 25.458514 l 10.28418,-12.35224 c 5.14154,-6.022871 8.65304,-10.208866 8.77817,-10.208866 h 0.12623 c 0.12503,0 3.51149,4.185995 8.40169,10.107052 z"
         id="path35-2"
         style="isolation:isolate;fill:#00cdc2;fill-opacity:1;stroke-width:0.63014811"
         inkscape:connector-curvature="0" />
      <g
         id="g986"
         style="fill:#4f5151;fill-opacity:1">
        <path
           style="isolation:isolate;fill:#4f5151;fill-opacity:1;stroke-width:0.63014811"
           inkscape:connector-curvature="0"
           id="path7-6"
           d="m 32.198169,103.00263 h 6.726004 v 10.87278 q 0,2.2473 1.047836,3.21983 1.065865,0.9598 3.459507,0.9598 2.410647,0 3.458459,-0.9598 1.065866,-0.97253 1.065866,-3.21983 v -10.87278 h 6.726004 v 10.87278 q 0,3.85192 -2.777566,5.7344 -2.77759,1.88353 -8.472763,1.88353 -5.678192,0 -8.455757,-1.88353 -2.77759,-1.88248 -2.77759,-5.7344 z" />
        <path
           style="isolation:isolate;fill:#4f5151;fill-opacity:1;stroke-width:0.63014811"
           inkscape:connector-curvature="0"
           id="path11-6"
           d="m 61.26895,103.00263 h 7.511882 l 9.486612,12.44027 v -12.44027 h 6.376043 v 18.13755 h -7.511881 l -9.486637,-12.44026 v 12.44026 H 61.26895 Z" />
        <path
           style="isolation:isolate;fill:#4f5151;fill-opacity:1;stroke-width:0.63014811"
           inkscape:connector-curvature="0"
           id="path15-8"
           d="m 91.24755,103.00263 h 6.726004 v 18.13755 H 91.24755 Z" />
        <path
           style="isolation:isolate;fill:#4f5151;fill-opacity:1;stroke-width:0.63014811"
           inkscape:connector-curvature="0"
           id="path19-9"
           d="m 122.74698,103.57321 v 3.8392 q -2.14868,-0.66815 -4.19236,-1.00859 -2.04476,-0.33938 -3.86146,-0.33938 -2.41065,0 -3.56347,0.46134 -1.15387,0.46134 -1.15387,1.43387 0,0.7286 0.7689,1.14115 0.78587,0.40089 2.8306,0.69254 l 2.86455,0.40089 q 4.35039,0.6077 6.18515,1.84748 1.83369,1.23873 1.83369,3.52315 0,3.0003 -2.5676,4.47023 -2.55062,1.45825 -7.80885,1.45825 -2.48167,0 -4.97927,-0.32876 -2.49867,-0.32772 -4.99732,-0.97147 v -3.94843 q 2.49865,0.92374 4.82231,1.39674 2.34065,0.4624 4.50735,0.4624 2.2017,0 3.3715,-0.51012 1.17085,-0.51119 1.17085,-1.45826 0,-0.85056 -0.8039,-1.3119 -0.78588,-0.46134 -3.16149,-0.82617 l -2.60366,-0.40089 q -3.91345,-0.5833 -5.73016,-1.85914 -1.79975,-1.27585 -1.79975,-3.43831 0,-2.70865 2.51561,-4.16691 2.51563,-1.4572 7.23296,-1.4572 2.14869,0 4.42039,0.23014 2.27063,0.21847 4.6993,0.66815 z" />
        <path
           style="isolation:isolate;fill:#4f5151;fill-opacity:1;stroke-width:0.63014811"
           inkscape:connector-curvature="0"
           id="path23-0"
           d="m 130.38188,103.00263 h 18.15133 v 3.53482 h -11.4253 v 3.37786 h 10.74444 v 3.53481 h -10.74444 v 4.15524 h 11.81028 v 3.53482 h -18.53631 z" />
        <path
           style="isolation:isolate;fill:#4f5151;fill-opacity:1;stroke-width:0.63014811"
           inkscape:connector-curvature="0"
           id="path27-3"
           d="m 169.37623,111.88369 9.04968,9.25649 h -7.00599 l -6.09711,-6.19574 -6.04516,6.19574 h -7.03993 l 9.04968,-9.25649 -8.70076,-8.88106 h 7.02297 l 5.7132,5.84364 5.69515,-5.84364 h 7.05796 z" />
        <path
           style="isolation:isolate;fill:#4f5151;fill-opacity:1;stroke-width:0.63014811"
           inkscape:connector-curvature="0"
           id="path39-8"
           d="m 32.198169,103.00263 h 6.726004 v 10.87278 q 0,2.2473 1.047836,3.21983 1.065865,0.9598 3.459507,0.9598 2.410647,0 3.458459,-0.9598 1.065866,-0.97253 1.065866,-3.21983 v -10.87278 h 6.726004 v 10.87278 q 0,3.85192 -2.777566,5.7344 -2.77759,1.88353 -8.472763,1.88353 -5.678192,0 -8.455757,-1.88353 -2.77759,-1.88248 -2.77759,-5.7344 z" />
        <path
           style="isolation:isolate;fill:#4f5151;fill-opacity:1;stroke-width:0.63014811"
           inkscape:connector-curvature="0"
           id="path43-7"
           d="m 61.26895,103.00263 h 7.511882 l 9.486612,12.44027 v -12.44027 h 6.376043 v 18.13755 h -7.511881 l -9.486637,-12.44026 v 12.44026 H 61.26895 Z" />
        <path
           style="isolation:isolate;fill:#4f5151;fill-opacity:1;stroke-width:0.63014811"
           inkscape:connector-curvature="0"
           id="path47-6"
           d="m 91.24755,103.00263 h 6.726004 v 18.13755 H 91.24755 Z" />
        <path
           style="isolation:isolate;fill:#4f5151;fill-opacity:1;stroke-width:0.63014811"
           inkscape:connector-curvature="0"
           id="path51-2"
           d="m 122.74698,103.57321 v 3.8392 q -2.14868,-0.66815 -4.19236,-1.00859 -2.04476,-0.33938 -3.86146,-0.33938 -2.41065,0 -3.56347,0.46134 -1.15387,0.46134 -1.15387,1.43387 0,0.7286 0.7689,1.14115 0.78587,0.40089 2.8306,0.69254 l 2.86455,0.40089 q 4.35039,0.6077 6.18515,1.84748 1.83369,1.23873 1.83369,3.52315 0,3.0003 -2.5676,4.47023 -2.55062,1.45825 -7.80885,1.45825 -2.48167,0 -4.97927,-0.32876 -2.49867,-0.32772 -4.99732,-0.97147 v -3.94843 q 2.49865,0.92374 4.82231,1.39674 2.34065,0.4624 4.50735,0.4624 2.2017,0 3.3715,-0.51012 1.17085,-0.51119 1.17085,-1.45826 0,-0.85056 -0.8039,-1.3119 -0.78588,-0.46134 -3.16149,-0.82617 l -2.60366,-0.40089 q -3.91345,-0.5833 -5.73016,-1.85914 -1.79975,-1.27585 -1.79975,-3.43831 0,-2.70865 2.51561,-4.16691 2.51563,-1.4572 7.23296,-1.4572 2.14869,0 4.42039,0.23014 2.27063,0.21847 4.6993,0.66815 z" />
        <path
           style="isolation:isolate;fill:#4f5151;fill-opacity:1;stroke-width:0.63014811"
           inkscape:connector-curvature="0"
           id="path55-3"
           d="m 130.38188,103.00263 h 18.15133 v 3.53482 h -11.4253 v 3.37786 h 10.74444 v 3.53481 h -10.74444 v 4.15524 h 11.81028 v 3.53482 h -18.53631 z" />
        <path
           style="isolation:isolate;fill:#4f5151;fill-opacity:1;stroke-width:0.63014811"
           inkscape:connector-curvature="0"
           id="path59-9"
           d="m 169.37623,111.88369 9.04968,9.25649 h -7.00599 l -6.09711,-6.19574 -6.04516,6.19574 h -7.03993 l 9.04968,-9.25649 -8.70076,-8.88106 h 7.02297 l 5.7132,5.84364 5.69515,-5.84364 h 7.05796 z" />
      </g>
      <path
         d="M 109.98006,51.769524 88.542077,27.512596 v 38.997529 c 0,12.218613 -5.684551,21.557826 -17.308205,21.557826 -11.753026,0 -18.078149,-9.339213 -18.078149,-21.557826 V 27.512596 H 31.200181 v 39.506595 c 0,21.484647 15.627228,33.194189 39.389952,33.194189 6.193607,0 16.816082,-2.377751 16.816082,-2.377751 L 109.78279,73.120543 c 0.11027,-6.453454 0.1972,-14.242144 0.1972,-21.351019 z"
         id="path63-7"
         style="isolation:isolate;fill:#ea27c2;fill-opacity:1;stroke-width:0.63014811"
         inkscape:connector-curvature="0" />
      <path
         d="m 152.16561,98.983144 h 26.46181 l -31.85473,-36.751282 30.7263,-34.710781 h -25.20825 l -9.40497,11.843175 c -4.13933,5.206246 -7.90109,10.004181 -8.15245,10.004181 h -0.12504 c -0.12504,0 -4.13828,-4.696121 -8.77819,-10.004181 L 115.79622,27.521081 90.212527,27.510364 121.31427,62.23175 88.707626,98.983032 h 25.458514 l 10.28418,-12.35224 c 5.14154,-6.022871 8.65304,-10.208866 8.77817,-10.208866 h 0.12623 c 0.12503,0 3.51149,4.185995 8.40169,10.107052 z"
         id="path67-4"
         style="isolation:isolate;fill:#00ffff;fill-opacity:0;stroke-width:0.63014811"
         inkscape:connector-curvature="0" />
    </g>
  </g>
</svg>
